# xmcd CD database file
#
# Track frame offsets:
#	150
#	5550
#	25115
#	39305
#	56727
#	76937
#	101362
#	113240
#	133687
#	162517
#	188270
#	206190
#	223335
#	238785
#	248407
#	249660
#	266722
#	287265
#	308862
#
# Disc length: 4501 seconds
#
# Revision: 0
# Processed by: cddbd v1.4PL0 Copyright (c) Steve Scherf et al.
# Submitted via: CDex 1.50
#
DISCID=05119313
DTITLE=Various Artist - A Night Out in New Orleans
DYEAR=2003
DGENRE=Jazz
TTITLE0=Original Dixieland Jazz Band - Narration
TTITLE1=Original Dixieland Jazz Band - Irish Channel Drag
TTITLE2=American Jazz Quintet - Never More
TTITLE3=Next Generation - One Daze
TTITLE4=Kermit Ruffins - Drop Me Off in New Orleans
TTITLE5=Los Hombres Calientes - New Bus Stop
TTITLE6=Marva Wright - Heartbreakin' Woman
TTITLE7=Rockin' Dopsie Jr. - Zydeco Party
TTITLE8=Little Freddie King - If You Want to Know the Blues...
TTITLE9=Coco Robicheaux - In the Wee, Wee Hours
TTITLE10=New Birth Brass Band - Whoopin' Blues
TTITLE11=Kim Prevost - Good Life
TTITLE12=Coolbone - Tromboniana
TTITLE13=Zion Harmonizers - My Record Will Be There
TTITLE14=Leah Chase and Wendell Brunious - The New Orleans Way/In This Town
TTITLE15=The Radiators - Ghost Along the Mississippi
TTITLE16=June Victory and the Bayou Renegades - Hold 'em Joe
TTITLE17=Pete Fountain - When the Saints Come Marching In
TTITLE18=unknown track
EXTD=YEAR: 2003
EXTT0=
EXTT1=
EXTT2=
EXTT3=
EXTT4=
EXTT5=
EXTT6=
EXTT7=
EXTT8=
EXTT9=
EXTT10=
EXTT11=
EXTT12=
EXTT13=
EXTT14=
EXTT15=
EXTT16=
EXTT17=
EXTT18=
PLAYORDER=
